<?xml version="1.0" encoding="utf-8"?>
<svg viewBox="0 0 500 500" xmlns="http://www.w3.org/2000/svg" xmlns:bx="https://boxy-svg.com">
  <g style="">
    <rect x="334.46" y="334.91" width="60.696" height="60.696" style="fill-rule: evenodd; fill: rgb(27, 163, 242); stroke: rgb(25, 149, 220);"/>
    <rect x="253.531" y="334.91" width="60.696" height="60.696" style="fill-rule: evenodd; fill: rgb(27, 163, 242); stroke: rgb(25, 149, 220);"/>
    <rect x="172.603" y="334.91" width="60.696" height="60.696" style="fill-rule: evenodd; fill: rgb(27, 163, 242); stroke: rgb(25, 149, 220);"/>
    <rect x="334.46" y="253.981" width="60.696" height="60.696" style="fill-rule: evenodd; fill: rgb(27, 163, 242); stroke: rgb(25, 149, 220);"/>
    <rect x="253.531" y="253.981" width="60.696" height="60.696" style="fill-rule: evenodd; fill: rgb(27, 163, 242); stroke: rgb(25, 149, 220);"/>
    <rect x="334.46" y="173.052" width="60.696" height="60.696" style="fill-rule: evenodd; fill: rgb(27, 163, 242); stroke-linecap: round; stroke: rgb(25, 149, 220);"/>
    <rect x="148.447" y="58.833" width="60.696" height="60.696" style="fill-rule: evenodd; fill: rgb(27, 163, 242); stroke: rgb(25, 149, 220);" transform="matrix(0.920505, -0.390731, 0.390731, 0.920505, 55.268684, 152.283203)"/>
    <rect x="148.447" y="58.833" width="60.696" height="60.696" style="fill-rule: evenodd; fill: rgb(27, 163, 242); stroke: rgb(25, 149, 220);" transform="matrix(0.819153, -0.573575, 0.573575, 0.819153, -16.549284, 284.737396)"/>
    <rect x="110.423" y="95.565" width="60.696" height="60.696" style="fill-rule: evenodd; fill: rgb(27, 163, 242); stroke: rgb(25, 149, 220);"/>
  </g>
  <path d="M 491.519 252.478 C 491.519 319.911 464.144 381.056 419.957 425.243 C 375.77 469.43 314.625 496.805 247.192 496.805 C 179.759 496.805 118.614 469.43 74.427 425.243 C 30.24 381.056 2.865 319.911 2.865 252.478 C 2.865 185.045 30.24 123.9 74.427 79.713 C 118.614 35.526 179.759 8.151 247.192 8.151 C 314.625 8.151 375.77 35.526 419.957 79.713 C 464.144 123.9 491.519 185.045 491.519 252.478 Z M 419.25 80.42 C 375.189 36.359 314.421 9.151 247.192 9.151 C 179.963 9.151 119.195 36.359 75.134 80.42 C 31.073 124.481 3.865 185.249 3.865 252.478 C 3.865 319.707 31.073 380.475 75.134 424.536 C 119.195 468.597 179.963 495.805 247.192 495.805 C 314.421 495.805 375.189 468.597 419.25 424.536 C 463.311 380.475 490.519 319.707 490.519 252.478 C 490.519 185.249 463.311 124.481 419.25 80.42 Z" style="fill: none;"/>
  <path d="M 457.132 465.502 m -249 0 a 249 249 0 1 0 498 0 a 249 249 0 1 0 -498 0 Z M 457.132 465.502 m -237 0 a 237 236.901 0 0 1 474 0 a 237 236.901 0 0 1 -474 0 Z" style="paint-order: fill; fill-rule: evenodd; fill: rgb(27, 163, 242); stroke: rgb(25, 149, 220);" transform="matrix(-0.615137, 0.78842, -0.78842, -0.615137, 898.210384, 175.93564)" bx:shape="ring 457.132 465.502 237 236.901 249 249 1@9aa7d295"/>
</svg>