<?xml version="1.0" encoding="utf-8"?>
<svg enable-background="new 0 0 24 24" height="24px" viewBox="0 0 24 24" width="24px" fill="#000000" xmlns="http://www.w3.org/2000/svg" xmlns:bx="https://boxy-svg.com">
  <defs>
    <radialGradient gradientUnits="userSpaceOnUse" cx="477.051" cy="442.921" r="336.656" id="gradient-1" spreadMethod="pad">
      <stop offset="0" style="stop-color: rgba(26, 163, 242, 1)"/>
      <stop offset="1" style="stop-color: rgba(9, 103, 157, 1)"/>
    </radialGradient>
  </defs>
  <g>
    <path d="M0,0h24v24H0V0z" fill="none"/>
  </g>
  <g style="" transform="matrix(1.528958, 0, 0, 1.528958, -5.773815, -4.632556)">
    <g>
      <path d="M 7.575 13.475 L 9.575 13.475 L 9.575 15.475 L 7.575 15.475 L 7.575 13.475 Z" style="paint-order: fill; fill-rule: nonzero; fill: rgb(26, 163, 242);"/>
      <path d="M 10.591 13.475 L 12.591 13.475 L 12.591 15.475 L 10.591 15.475 L 10.591 13.475 Z" style="paint-order: fill; fill-rule: nonzero; fill: rgb(26, 163, 242);"/>
      <path d="M 13.591 13.511 L 15.591 13.511 L 15.591 15.511 L 13.591 15.511 L 13.591 13.511 Z" style="paint-order: fill; fill-rule: nonzero; fill: rgb(26, 163, 242);"/>
      <path d="M 10.563 10.475 L 12.563 10.475 L 12.563 12.475 L 10.563 12.475 L 10.563 10.475 Z" style="paint-order: fill; fill-rule: nonzero; fill: rgb(26, 163, 242);"/>
      <path d="M 13.563 10.511 L 15.563 10.511 L 15.563 12.511 L 13.563 12.511 L 13.563 10.511 Z" style="paint-order: fill; fill-rule: nonzero; fill: rgb(26, 163, 242);"/>
      <path d="M 13.563 7.475 L 15.563 7.475 L 15.563 9.475 L 13.563 9.475 L 13.563 7.475 Z" style="paint-order: fill; fill-rule: nonzero; fill: rgb(26, 163, 242);"/>
    </g>
  </g>
  <path style="fill: url(#gradient-1); paint-order: stroke markers;" transform="matrix(0.040582, -0.000001, 0.000001, 0.040582, -7.41089, -6.477327)" d="M 381.72280493 193.6 L 572.37919507 193.6 L 645.643201698 285.631684353 A 254.936 254.936 0 0 1 726.957412173 426.472028273 L 770.027185462 535.936361373 L 674.698990392 701.049638627 L 558.365210475 718.482287374 A 254.936 254.936 0 0 1 395.736789525 718.482287374 L 279.403009608 701.049638627 L 184.074814538 535.936361373 L 227.144587827 426.472028273 A 254.936 254.936 0 0 1 308.458798302 285.631684353 Z M 477.051 250.252 A 226.61 226.61 0 0 0 477.051 703.472 A 226.61 226.61 0 0 0 477.051 250.252" bx:shape="cog 477.051 476.862 226.61 254.936 283.262 0.38 3 1@fbf4221f"/>
</svg>